<svg width="80" height="79" viewBox="0 0 80 79" fill="none" xmlns="http://www.w3.org/2000/svg">
<path d="M66.6454 53.3843V66.2758C66.6531 67.4761 66.1857 68.6307 65.3451 69.4875C64.5045 70.3443 63.3591 70.8337 62.1589 70.849H36.7224C34.2577 70.849 32.2359 69.7996 32.3803 65.2456" stroke="#232F3E" stroke-linecap="round" stroke-linejoin="round"/>
<path d="M66.6162 32.5698V35.8914" stroke="#232F3E" stroke-linecap="round" stroke-linejoin="round"/>
<path d="M32.2364 32.213V13.9203C32.2287 12.7201 32.6962 11.5655 33.5367 10.7087C34.3773 9.85186 35.5227 9.3624 36.7229 9.34717H62.1305C62.7289 9.35094 63.3207 9.47286 63.8718 9.70594C64.423 9.93901 64.9227 10.2787 65.3422 10.7054C65.7618 11.1321 66.0929 11.6374 66.3167 12.1925C66.5404 12.7475 66.6523 13.3412 66.6459 13.9396V26.2631" stroke="#232F3E" stroke-linecap="round" stroke-linejoin="round"/>
<path d="M64.0555 53.8179V67.2294C64.0555 67.3318 64.0354 67.4332 63.9962 67.5278C63.957 67.6224 63.8995 67.7084 63.8271 67.7808C63.7547 67.8532 63.6687 67.9106 63.5741 67.9498C63.4795 67.989 63.3781 68.0092 63.2757 68.0092H35.5767C35.4743 68.0092 35.3729 67.989 35.2783 67.9498C35.1837 67.9106 35.0977 67.8532 35.0253 67.7808C34.9529 67.7084 34.8954 67.6224 34.8562 67.5278C34.817 67.4332 34.7969 67.3318 34.7969 67.2294V42.1973" stroke="#232F3E" stroke-linecap="round" stroke-linejoin="round"/>
<path d="M64.0557 32.9448V36.4204" stroke="#232F3E" stroke-linecap="round" stroke-linejoin="round"/>
<path d="M34.874 30.9421V12.9864C34.874 12.7796 34.9562 12.5812 35.1024 12.435C35.2487 12.2887 35.447 12.2065 35.6539 12.2065H63.3528C63.5597 12.2065 63.758 12.2887 63.9043 12.435C64.0505 12.5812 64.1327 12.7796 64.1327 12.9864V26.6193" stroke="#232F3E" stroke-linecap="round" stroke-linejoin="round"/>
<path d="M58.3076 12.3125L57.239 13.6893C56.9579 14.0529 56.5977 14.3477 56.1856 14.5513C55.7736 14.7548 55.3205 14.8617 54.8609 14.8638H44.0682C43.6086 14.8617 43.1556 14.7548 42.7435 14.5513C42.3314 14.3477 41.9712 14.0529 41.6902 13.6893L40.6504 12.3125H58.3076Z" stroke="#232F3E" stroke-linecap="round" stroke-linejoin="round"/>
<path d="M42.1816 64.7744H56.7484" stroke="#232F3E" stroke-linecap="round" stroke-linejoin="round"/>
<path d="M23.4844 12.3125H27.3258" stroke="#232F3E" stroke-linecap="round" stroke-linejoin="round"/>
<path d="M26.3438 4.03271L29.0588 6.74773" stroke="#232F3E" stroke-linecap="round" stroke-linejoin="round"/>
<path d="M34.0166 0.740234V4.57207" stroke="#232F3E" stroke-linecap="round" stroke-linejoin="round"/>
<path d="M63.7785 26.8424C62.1072 27.1888 61.0332 28.8245 61.3796 30.4958C61.726 32.1671 63.3617 33.2411 65.033 32.8947L70.6706 31.7262C72.3419 31.3798 73.4159 29.7441 73.0695 28.0728C72.7231 26.4015 71.0874 25.3274 69.4161 25.6739L63.7785 26.8424Z" stroke="#232F3E" stroke-linecap="round" stroke-linejoin="round"/>
<path d="M69.7994 47.509C71.4083 47.1755 72.4421 45.601 72.1087 43.9921C71.7752 42.3833 70.2007 41.3494 68.5918 41.6829L63.4822 42.742C61.8734 43.0754 60.8395 44.65 61.173 46.2588C61.5064 47.8677 63.081 48.9015 64.6898 48.5681L69.7994 47.509Z" stroke="#232F3E" stroke-linecap="round" stroke-linejoin="round"/>
<path d="M59.9265 40.3455L59.9284 40.3549C60.2662 41.9846 61.8611 43.0318 63.4908 42.6941L70.3916 41.2637C72.0213 40.9259 73.0686 39.331 72.7308 37.7013L72.7288 37.6919C72.391 36.0622 70.7961 35.015 69.1664 35.3528L62.2656 36.7831C60.636 37.1209 59.5887 38.7158 59.9265 40.3455Z" stroke="#232F3E" stroke-linecap="round" stroke-linejoin="round"/>
<path d="M68.4624 53.0095C69.7848 52.7354 70.6347 51.4411 70.3606 50.1187C70.0865 48.7962 68.7922 47.9463 67.4697 48.2204L63.7742 48.9864C62.4517 49.2605 61.6018 50.5548 61.876 51.8773C62.1501 53.1998 63.4444 54.0496 64.7668 53.7755L68.4624 53.0095Z" stroke="#232F3E" stroke-linecap="round" stroke-linejoin="round"/>
<path d="M5.74023 51.9212L21.3949 48.8981L24.8031 39.0875C24.8031 39.0875 26.9886 35.0631 29.7325 33.5227C31.8121 32.3481 37.7717 29.4983 40.5156 28.1889C40.751 28.0688 41.0086 27.9984 41.2724 27.9822C41.5361 27.9659 41.8004 28.0041 42.0488 28.0944C42.2972 28.1848 42.5243 28.3252 42.716 28.5071C42.9077 28.689 43.06 28.9084 43.1632 29.1517C43.8757 30.8269 43.8949 33.7633 39.5432 37.961C37.3096 40.1273 34.7293 42.2165 33.1793 43.4488C32.9286 43.6456 32.7262 43.8972 32.5877 44.1842C32.4492 44.4712 32.3782 44.7861 32.3802 45.1048V65.246" stroke="#232F3E" stroke-linecap="round" stroke-linejoin="round"/>
<path d="M5.74023 75.7404L32.9674 69.4438" stroke="#232F3E" stroke-linecap="round" stroke-linejoin="round"/>
<path d="M49.7971 46.2411C53.2533 46.2411 56.0551 43.4393 56.0551 39.9831C56.0551 36.5269 53.2533 33.7251 49.7971 33.7251C46.3409 33.7251 43.5391 36.5269 43.5391 39.9831C43.5391 43.4393 46.3409 46.2411 49.7971 46.2411Z" stroke="#232F3E" stroke-linecap="round" stroke-linejoin="round"/>
<path d="M46.2266 40.2839L48.7075 42.5506L53.3821 37.4287" stroke="#232F3E" stroke-linecap="round" stroke-linejoin="round"/>
</svg>
