<svg width="80" height="78" viewBox="0 0 80 78" fill="none" xmlns="http://www.w3.org/2000/svg">
<path d="M42.9987 2.5H37.0029V8.34145H42.9987V2.5Z" stroke="#232F3E" stroke-linecap="round" stroke-linejoin="round"/>
<path d="M52.6649 2.5H27.3359V26.5H52.6649V2.5Z" stroke="#232F3E" stroke-linecap="round" stroke-linejoin="round"/>
<path d="M66.9608 75.4905H13.0498V42.0127L40.0053 35.5L66.9608 42.0127V75.4905Z" stroke="#232F3E" stroke-linecap="round" stroke-linejoin="round"/>
<path d="M60.4385 46.126H19.5625V75.4904H60.4385V46.126Z" stroke="#232F3E" stroke-linecap="round" stroke-linejoin="round"/>
<path d="M19.5625 55.7998H28.3509" stroke="#232F3E" stroke-linecap="round" stroke-linejoin="round"/>
<path d="M25.7705 50.687H19.5625V55.8001H25.7705V50.687Z" stroke="#232F3E" stroke-linecap="round" stroke-linejoin="round"/>
<path d="M19.5625 63.7886H28.3509" stroke="#232F3E" stroke-linecap="round" stroke-linejoin="round"/>
<path d="M25.7705 58.6753H19.5625V63.7884H25.7705V58.6753Z" stroke="#232F3E" stroke-linecap="round" stroke-linejoin="round"/>
<path d="M27.9605 68.5776H19.5625V75.4998H27.9605V68.5776Z" stroke="#232F3E" stroke-linecap="round" stroke-linejoin="round"/>
<path d="M60.438 55.7998H51.6592" stroke="#232F3E" stroke-linecap="round" stroke-linejoin="round"/>
<path d="M54.2402 55.7998H60.4482V50.6867H54.2402V55.7998Z" stroke="#232F3E" stroke-linecap="round" stroke-linejoin="round"/>
<path d="M60.438 63.7886H51.6592" stroke="#232F3E" stroke-linecap="round" stroke-linejoin="round"/>
<path d="M54.2402 63.7886H60.4482V58.6755H54.2402V63.7886Z" stroke="#232F3E" stroke-linecap="round" stroke-linejoin="round"/>
<path d="M52.0405 75.4907H60.4385V68.5686H52.0405V75.4907Z" stroke="#232F3E" stroke-linecap="round" stroke-linejoin="round"/>
<path d="M32.8832 75.4907H47.1084V68.5686H32.8832V75.4907Z" stroke="#232F3E" stroke-linecap="round" stroke-linejoin="round"/>
<path d="M35.1491 68.5776H44.8516V61.6555H35.1491V68.5776Z" stroke="#232F3E" stroke-linecap="round" stroke-linejoin="round"/>
<path d="M36.7487 61.6558H43.252V55.8H36.7487V61.6558Z" stroke="#232F3E" stroke-linecap="round" stroke-linejoin="round"/>
<path d="M8.05078 75.4907H71.9499" stroke="#232F3E" stroke-linecap="round" stroke-linejoin="round"/>
</svg>
