<svg width="81" height="80" viewBox="0 0 81 80" fill="none" xmlns="http://www.w3.org/2000/svg">
<path d="M30.9589 2.92286C28.0874 2.92286 25.3335 4.06356 23.303 6.09403C21.2725 8.1245 20.1318 10.8784 20.1318 13.7499C20.1318 19.7274 30.9589 32.9229 30.9589 32.9229C30.9589 32.9229 41.7972 19.7161 41.7972 13.7499C41.7972 12.3271 41.5168 10.9183 40.972 9.60398C40.4272 8.28964 39.6287 7.09557 38.6221 6.09004C37.6155 5.08451 36.4206 4.28723 35.1057 3.74378C33.7908 3.20033 32.3817 2.92138 30.9589 2.92286V2.92286ZM30.9589 17.8665C30.1403 17.8665 29.34 17.6237 28.6593 17.1689C27.9787 16.7141 27.4481 16.0677 27.1349 15.3113C26.8216 14.555 26.7396 13.7228 26.8993 12.9199C27.059 12.117 27.4533 11.3794 28.0321 10.8006C28.611 10.2217 29.3485 9.82751 30.1514 9.6678C30.9543 9.50809 31.7865 9.59006 32.5429 9.90334C33.2992 10.2166 33.9456 10.7471 34.4004 11.4278C34.8552 12.1085 35.098 12.9087 35.098 13.7274C35.098 14.8251 34.6619 15.8779 33.8857 16.6541C33.1094 17.4304 32.0567 17.8665 30.9589 17.8665V17.8665Z" stroke="#232F3E" stroke-linecap="round" stroke-linejoin="round"/>
<path d="M44.7637 20.561H60.711" stroke="#232F3E" stroke-linecap="round" stroke-linejoin="round"/>
<path d="M55.4209 15.1157L60.8683 20.5631L55.4209 26.0105" stroke="#232F3E" stroke-linecap="round" stroke-linejoin="round"/>
<path d="M72.7704 69.8728C72.9271 70.7878 72.7885 71.7289 72.3749 72.5599C71.9612 73.3909 71.2939 74.0688 70.4694 74.4953C69.645 74.9219 68.7062 75.0751 67.7889 74.9328C66.8716 74.7904 66.0233 74.3599 65.3669 73.7035C64.7105 73.0471 64.28 72.1989 64.1377 71.2816C63.9953 70.3643 64.1485 69.4255 64.5751 68.601C65.0017 67.7766 65.6795 67.1092 66.5106 66.6956C67.3416 66.2819 68.2826 66.1434 69.1976 66.3C70.0896 66.4528 70.9122 66.8784 71.5521 67.5183C72.1921 68.1582 72.6177 68.9809 72.7704 69.8728V69.8728Z" stroke="#232F3E" stroke-linecap="round" stroke-linejoin="round"/>
<path d="M28.8545 73.9812C30.5664 72.2711 30.5776 69.5068 28.8795 67.8069C27.1814 66.107 24.417 66.1153 22.7051 67.8254C20.9932 69.5356 20.982 72.2999 22.6801 73.9998C24.3782 75.6996 27.1426 75.6913 28.8545 73.9812Z" stroke="#232F3E" stroke-linecap="round" stroke-linejoin="round"/>
<path d="M71.7462 56.7825H63.0298C62.5785 56.7825 62.1457 56.6032 61.8265 56.2841C61.5074 55.9649 61.3281 55.5321 61.3281 55.0808V47.042" stroke="#232F3E" stroke-linecap="round" stroke-linejoin="round"/>
<path d="M64.1546 70.5967H30.082" stroke="#232F3E" stroke-linecap="round" stroke-linejoin="round"/>
<path d="M14.3203 51.3929V47.5429C14.3203 46.3176 14.8071 45.1424 15.6735 44.276C16.5399 43.4096 17.715 42.9229 18.9403 42.9229H61.2904C62.3004 42.9271 63.2683 43.3281 63.9854 44.0394L76.0821 56.1823C76.4956 56.5852 77.045 56.8187 77.6221 56.8368C78.2049 56.8508 78.7592 57.0923 79.1663 57.5095C79.5735 57.9268 79.8014 58.4868 79.8012 59.0698V65.9998C79.8012 67.2251 79.3145 68.4002 78.448 69.2666C77.5816 70.133 76.4065 70.6198 75.1812 70.6198H73.1407" stroke="#232F3E" stroke-linecap="round" stroke-linejoin="round"/>
<path d="M14.3203 62.042V66.0229C14.3203 67.2482 14.8071 68.4233 15.6735 69.2897C16.5399 70.1561 17.715 70.6429 18.9403 70.6429H20.7729" stroke="#232F3E" stroke-linecap="round" stroke-linejoin="round"/>
<path d="M64.8239 60.856H61.3281" stroke="#232F3E" stroke-linecap="round" stroke-linejoin="round"/>
<path d="M54.6453 60.856H51.1572" stroke="#232F3E" stroke-linecap="round" stroke-linejoin="round"/>
<path d="M7.69043 51.4082H19.7948" stroke="#232F3E" stroke-linecap="round" stroke-linejoin="round"/>
<path d="M3.88672 56.729H15.9988" stroke="#232F3E" stroke-linecap="round" stroke-linejoin="round"/>
<path d="M7.69043 62.042H19.7948" stroke="#232F3E" stroke-linecap="round" stroke-linejoin="round"/>
<path d="M14.335 64.2441H79.8081" stroke="#232F3E" stroke-linecap="round" stroke-linejoin="round"/>
<path d="M57.9326 42.9229V70.5966" stroke="#232F3E" stroke-linecap="round" stroke-linejoin="round"/>
<path d="M14.1813 54.0264H1.19141" stroke="#232F3E" stroke-linecap="round" stroke-linejoin="round"/>
<path d="M14.1813 59.3389H1.19141" stroke="#232F3E" stroke-linecap="round" stroke-linejoin="round"/>
<path fill-rule="evenodd" clip-rule="evenodd" d="M48.2771 53.8028C45.06 55.984 41.2606 57.1458 37.3738 57.1369C32.458 57.1602 27.7105 55.348 24.0605 52.0549C23.7833 51.8085 24.0605 51.4697 24.3608 51.6622C28.4183 53.9786 33.0097 55.1968 37.6818 55.1965C41.1738 55.1803 44.628 54.4737 47.8459 53.1175C48.3464 52.9019 48.7622 53.4409 48.2771 53.8028Z" fill="#232F3E"/>
<path fill-rule="evenodd" clip-rule="evenodd" d="M49.5016 52.4012C49.1243 51.9161 47.0068 52.1702 46.0597 52.2857C45.7748 52.3242 45.7286 52.0701 45.9827 51.8853C47.669 50.7072 50.4333 51.046 50.7567 51.4387C51.0801 51.8314 50.672 54.6111 49.0935 55.9355C48.8471 56.1434 48.6161 56.0279 48.7239 55.7661C49.0781 54.8729 49.8789 52.8863 49.4939 52.4012H49.5016Z" fill="#232F3E"/>
</svg>
